<svg xmlns="http://www.w3.org/2000/svg" height="40" viewBox="0 -960 960 960" width="40"><path d="M326.207-118.668v-85.334H162.565q-32.513 0-56.205-23.691-23.692-23.692-23.692-56.205v-477.537q0-32.513 23.692-56.205t56.205-23.692h634.87q32.513 0 56.205 23.692t23.692 56.205v477.537q0 32.513-23.692 56.205-23.692 23.691-56.205 23.691H633.793v85.334H326.207ZM162.565-271.59h634.87q4.616 0 8.462-3.846 3.847-3.847 3.847-8.462v-477.537q0-4.616-3.847-8.462-3.846-3.847-8.462-3.847h-634.87q-4.616 0-8.462 3.847-3.847 3.846-3.847 8.462v477.537q0 4.615 3.847 8.462 3.846 3.846 8.462 3.846Zm-12.309 0V-773.744v502.154Z"/></svg>