<svg xmlns="http://www.w3.org/2000/svg" height="40" viewBox="0 -960 960 960" width="40"><path d="M480-500.719q-64.724 0-107.259-42.534-42.534-42.535-42.534-107.387 0-64.853 42.534-107.259Q415.276-800.305 480-800.305t107.259 42.406q42.534 42.406 42.534 107.259 0 64.852-42.534 107.387Q544.724-500.719 480-500.719ZM160.002-147.362v-100.587q0-35.615 18.163-62.945 18.163-27.329 47.682-41.977 64.539-30.744 127.661-45.91 63.123-15.167 126.423-15.167 63.299 0 126.286 15.372t127.358 45.886q30.23 14.626 48.327 41.876 18.096 27.25 18.096 62.865v100.587H160.002Zm67.588-67.588h504.82v-32.999q0-14.462-7.486-26.232t-20.027-17.82q-57.564-27.615-113.174-40.987Q536.113-346.36 480-346.36t-111.928 13.205q-55.815 13.205-112.712 41.154-12.975 5.949-20.373 17.643-7.397 11.694-7.397 26.409v32.999ZM480-568.307q34.974 0 58.59-23.615 23.615-23.616 23.615-58.59 0-34.974-23.615-58.59-23.616-23.615-58.59-23.615-34.974 0-58.59 23.615-23.615 23.616-23.615 58.59 0 34.974 23.615 58.59 23.616 23.615 58.59 23.615Zm0-82.205Zm0 435.562Z"/></svg>